<?xml version="1.0" encoding="UTF-8" standalone="no"?>
<!-- Created with Inkscape (http://www.inkscape.org/) -->

<svg
   xmlns:dc="http://purl.org/dc/elements/1.1/"
   xmlns:cc="http://creativecommons.org/ns#"
   xmlns:rdf="http://www.w3.org/1999/02/22-rdf-syntax-ns#"
   xmlns:svg="http://www.w3.org/2000/svg"
   xmlns="http://www.w3.org/2000/svg"
   xmlns:xlink="http://www.w3.org/1999/xlink"
   xmlns:sodipodi="http://sodipodi.sourceforge.net/DTD/sodipodi-0.dtd"
   xmlns:inkscape="http://www.inkscape.org/namespaces/inkscape"
   inkscape:version="0.48.5 r10040"
   version="1.1"
   id="svg2"
   height="1052.3622047"
   width="744.09448819"
   sodipodi:docname="New document 1">
  <sodipodi:namedview
     id="base"
     pagecolor="#ffffff"
     bordercolor="#666666"
     borderopacity="1.0"
     inkscape:pageopacity="0.0"
     inkscape:pageshadow="2"
     inkscape:zoom="0.35"
     inkscape:cx="1553.615"
     inkscape:cy="347.42195"
     inkscape:document-units="px"
     inkscape:current-layer="svg2"
     showgrid="false"
     inkscape:window-width="1920"
     inkscape:window-height="1018"
     inkscape:window-x="-8"
     inkscape:window-y="-8"
     inkscape:window-maximized="1" />
  <defs
     id="defs4">
    <linearGradient
       inkscape:collect="always"
       id="linearGradient7442">
      <stop
         style="stop-color:#333333;stop-opacity:1"
         offset="0"
         id="stop7444" />
      <stop
         style="stop-color:#000000;stop-opacity:1"
         offset="1"
         id="stop7446" />
    </linearGradient>
    <linearGradient
       inkscape:collect="always"
       id="linearGradient7434">
      <stop
         style="stop-color:#f6f6f6;stop-opacity:1"
         offset="0"
         id="stop7436" />
      <stop
         style="stop-color:#f6f6f6;stop-opacity:0;"
         offset="1"
         id="stop7438" />
    </linearGradient>
    <linearGradient
       inkscape:collect="always"
       id="linearGradient3777">
      <stop
         style="stop-color:#4141be;stop-opacity:1"
         offset="0"
         id="stop3779" />
      <stop
         style="stop-color:#d45500;stop-opacity:1"
         offset="1"
         id="stop3781" />
    </linearGradient>
    <linearGradient
       id="linearGradient3755"
       inkscape:collect="always">
      <stop
         id="stop3757"
         offset="0"
         style="stop-color:#4141be;stop-opacity:1" />
      <stop
         id="stop3759"
         offset="1"
         style="stop-color:#ab2929;stop-opacity:1" />
    </linearGradient>
    <linearGradient
       gradientUnits="userSpaceOnUse"
       y2="840.93359"
       x2="1957.1428"
       y1="409.50504"
       x1="1085.7142"
       id="linearGradient3761"
       xlink:href="#linearGradient3755"
       inkscape:collect="always" />
    <linearGradient
       gradientTransform="translate(2.8571429,-420)"
       y2="840.93359"
       x2="1957.1428"
       y1="409.50504"
       x1="1085.7142"
       gradientUnits="userSpaceOnUse"
       id="linearGradient3775"
       xlink:href="#linearGradient3777"
       inkscape:collect="always" />
    <linearGradient
       inkscape:collect="always"
       xlink:href="#linearGradient7434"
       id="linearGradient7440"
       x1="1026.0748"
       y1="1125.9014"
       x2="2194.7708"
       y2="380.40875"
       gradientUnits="userSpaceOnUse"
       gradientTransform="translate(2.0203051,5.0507627)" />
    <radialGradient
       inkscape:collect="always"
       xlink:href="#linearGradient7442"
       id="radialGradient7448"
       cx="1712.6702"
       cy="720.93359"
       fx="1712.6702"
       fy="720.93359"
       r="624.09882"
       gradientTransform="matrix(0.57207746,-0.8201996,1.391977,0.97088399,-270.6328,1425.7221)"
       gradientUnits="userSpaceOnUse" />
  </defs>
  <metadata
     id="metadata7">
    <rdf:RDF>
      <cc:Work
         rdf:about="">
        <dc:format>image/svg+xml</dc:format>
        <dc:type
           rdf:resource="http://purl.org/dc/dcmitype/StillImage" />
        <dc:title></dc:title>
      </cc:Work>
    </rdf:RDF>
  </metadata>
  <g
     id="layer1"
     inkscape:groupmode="layer"
     inkscape:label="Layer 1">
    <rect
       y="335.21933"
       x="1088.5714"
       height="771.42859"
       width="1248.1976"
       id="rect2985"
       style="color:#000000;fill:url(#radialGradient7448);fill-opacity:1;fill-rule:nonzero;stroke:none;stroke-width:2.50000000000000000;stroke-linecap:round;stroke-linejoin:miter;stroke-miterlimit:4;stroke-opacity:1;stroke-dasharray:none;stroke-dashoffset:0;marker:none;visibility:visible;display:inline;overflow:visible;enable-background:accumulate" />
    <path
       inkscape:connector-curvature="0"
       id="path3783"
       d="M -612.85714,403.79075 -810.71429,205.93361 -609.28572,4.5050369"
       style="fill:none;stroke:#000000;stroke-width:1px;stroke-linecap:butt;stroke-linejoin:miter;stroke-opacity:1" />
    <path
       d="m -607.07141,6.6478963 a 1.5,1.5 0 1 1 -3,0 1.5,1.5 0 1 1 3,0 z"
       sodipodi:ry="1.5"
       sodipodi:rx="1.5"
       sodipodi:cy="6.6478963"
       sodipodi:cx="-608.57141"
       style="fill:#000000;stroke:none"
       id="path3785"
       sodipodi:type="arc" />
    <path
       inkscape:connector-curvature="0"
       id="path3787"
       d="M -605.71429,8.0764678 -414.28571,199.50504 -615.71428,400.93361"
       style="fill:none;stroke:#000000;stroke-width:1px;stroke-linecap:butt;stroke-linejoin:miter;stroke-opacity:1" />
  </g>
  <path
     id="path7406"
     d="m 1369.3565,912.73944 80.6849,80.68483 80.6847,80.68483 80.6849,-80.68483 -80.6849,-80.68483 -80.6847,80.68483 -114.1054,0 -114.1056,0 0,114.10563 114.1056,0 0,-114.10563 -80.685,-80.68483 -80.6847,-80.68481 -80.6849,80.68481 80.6849,80.68483 80.6847,-80.68483 0,-114.10556 0,-114.10555 -114.1055,0 0,114.10555 114.1055,0 80.685,-80.68484 80.6845,-80.68481 -80.6845,-80.68481 -80.685,80.68481 80.685,80.68481 -80.685,80.68484 -80.6847,80.68481 80.6847,80.68479 80.685,-80.68479 -80.685,-80.68481 0,-114.10555 0,-114.1056 -114.1055,0 0,114.1056 114.1055,0 80.685,-80.68485 80.6845,-80.68481 -80.6845,-80.68481 -80.685,80.68481 80.685,80.68481 114.1054,0 114.1056,0 0,-114.10556 -114.1056,0 0,114.10556 80.6847,80.68485 80.6849,80.68481 80.6849,-80.68481 -80.6849,-80.68485 -80.6849,80.68485 -80.6847,80.68481 -80.6849,80.68481 80.6849,80.68481 80.6847,-80.68481 -80.6847,-80.68481 0,-114.10556 0,-114.10558 -114.1054,0 0,114.10558 114.1054,0 80.6847,-80.68485 80.6849,-80.68481 -80.6849,-80.68481 -80.6847,80.68481 80.6847,80.68481 114.1056,0 114.1056,0 0,-114.10555 -114.1056,0 0,114.10555 80.6848,80.68485 80.6849,80.68481 80.6848,-80.68481 -80.6848,-80.68485 -80.6849,80.68485 -80.6848,80.68481 -80.6847,80.68482 80.6847,80.6848 80.6848,-80.6848 -80.6848,-80.68482 0,-114.10556 0,-114.10558 -114.1056,0 0,114.10558 114.1056,0 80.6848,-80.68483 80.6849,-80.68482 -80.6849,-80.68481 -80.6848,80.68481 80.6848,80.68482 114.1057,0 114.1055,0 0,-114.10556 -114.1055,0 0,114.10556 80.6848,80.68483 80.6848,80.68482 80.6849,-80.68482 -80.6849,-80.68483 -80.6848,80.68483 -80.6848,80.68482 -80.6849,80.68481 80.6849,80.68481 80.6848,-80.68481 -80.6848,-80.68481 0,-114.10556 0,-114.10558 -114.1057,0 0,114.10558 114.1057,0 80.6848,-80.68484 80.6848,-80.68481 -80.6848,-80.68482 -80.6848,80.68482 80.6848,80.68481 114.1057,0 114.1056,0 0,-114.10555 -114.1056,0 0,114.10555 80.6847,80.68484 80.6849,80.68481 80.6846,-80.68481 -80.6846,-80.68484 -80.6849,80.68484"
     style="fill:none;stroke:url(#linearGradient7440);stroke-width:2.27301908px;stroke-linecap:butt;stroke-linejoin:miter;stroke-opacity:1"
     inkscape:connector-curvature="0" />
</svg>
